# xmcd
#
# Track frame offsets:
#	150
#	13095
#	27177
#	38432
#	48035
#	60347
#	71322
#	83265
#	95012
#	106267
#	130357
#
# Disc length: 1847 seconds
#
# Revision: 1
# Processed by: cddbd v1.5.2PL0 Copyright (c) Steve Scherf et al.
# Submitted via: audiograbber 1.83.01
#
DISCID=7607350b
DTITLE=Jim Reeves - Golden Memories
DYEAR=1997
DGENRE=Country
TTITLE0=Distant Drums
TTITLE1=This is it
TTITLE2=Maureen
TTITLE3=I'm Gonna Change Everything
TTITLE4=A Letter to My Heart
TTITLE5=Look Who's Talking
TTITLE6=Blue Canadian Rockies
TTITLE7=In the Misty Moonlight
TTITLE8=According to My Heart
TTITLE9=Golden Memories and Silver Tears
TTITLE10=Data Track
EXTD=# Audio CD (November 18, 1997]\n# Original Release Date: November 18, 1997
EXTD=\n# Number of Discs: 1\n# Label: Bmg Special Product\n# ASIN: B000001U2I
EXTT0=
EXTT1=
EXTT2=
EXTT3=
EXTT4=
EXTT5=
EXTT6=
EXTT7=
EXTT8=
EXTT9=
EXTT10=
PLAYORDER=
